<?xml version="1.0" encoding="UTF-8"?>
<!DOCTYPE svg PUBLIC "-//W3C//DTD SVG 1.1//EN" "http://www.w3.org/Graphics/SVG/1.1/DTD/svg11.dtd">
<!-- Creator: CorelDRAW 2020 (64-Bit) -->
<svg xmlns="http://www.w3.org/2000/svg" xml:space="preserve" width="297mm" height="420mm" version="1.1" style="shape-rendering:geometricPrecision; text-rendering:geometricPrecision; image-rendering:optimizeQuality; fill-rule:evenodd; clip-rule:evenodd"
viewBox="0 0 29700 42000"
 xmlns:xlink="http://www.w3.org/1999/xlink"
 xmlns:xodm="http://www.corel.com/coreldraw/odm/2003">
 <defs>
  <style type="text/css">
   <![CDATA[
    .fil1 {fill:black;fill-rule:nonzero}
    .fil0 {fill:#D60037;fill-rule:nonzero}
   ]]>
  </style>
 </defs>
 <g id="图层_x0020_1">
  <metadata id="CorelCorpID_0Corel-Layer"/>
  <path class="fil0" d="M7173.87 7805.86c65.71,49.76 152.92,-3.45 161.5,-85.48 34.14,-326.93 59.89,-778.58 -188.29,-867.15 -134.13,-47.88 -383.2,75.16 -647.9,276.41 -56.62,43.08 -58.44,137.1 -0.49,178.37 114.42,81.53 286.45,206.09 359.03,259.42 67.74,49.78 207.26,155.97 316.15,238.43z"/>
  <path class="fil0" d="M7010.48 8220.07c50.61,-15.73 89.1,44.99 53.52,84.38 -476,526.88 -1651.9,1775.4 -2028.19,1645.49 -295.42,-101.97 -217.57,-697.86 -167.67,-999.8 6.59,-39.95 38.12,-86.94 76.85,-98.98 300.73,-93.45 1586.52,-482.25 2065.49,-631.09z"/>
  <path class="fil0" d="M6289.45 9505.32c-45.04,49.87 -39.24,134.17 19.91,165.98 487.05,261.95 883.78,383.1 1180.58,206.51 339.14,-201.84 91.52,-1044.36 -91.35,-1494.25 -37.92,-93.31 -128.44,-95.32 -184.99,-20.01 -249.69,332.51 -548.72,726.2 -924.15,1141.77z"/>
  <path class="fil0" d="M6973.93 8073.83c88.35,-19.74 108.24,-132.68 33.57,-183.98 -760.56,-522.38 -1894.09,-1273.18 -2308.85,-988.78 -347.98,238.59 -54.33,1130.87 115.77,1565.41 18.63,47.61 69.13,74.43 118.96,63.29l2040.55 -455.94z"/>

 </g>
</svg>
