<?xml version="1.0" encoding="UTF-8"?>
<!DOCTYPE svg PUBLIC "-//W3C//DTD SVG 1.1//EN" "http://www.w3.org/Graphics/SVG/1.1/DTD/svg11.dtd">
<!-- Creator: CorelDRAW 2020 (64-Bit) -->
<svg xmlns="http://www.w3.org/2000/svg" xml:space="preserve" width="297mm" height="420mm" version="1.1" style="shape-rendering:geometricPrecision; text-rendering:geometricPrecision; image-rendering:optimizeQuality; fill-rule:evenodd; clip-rule:evenodd"
viewBox="0 0 29700 42000"
 xmlns:xlink="http://www.w3.org/1999/xlink"
 xmlns:xodm="http://www.corel.com/coreldraw/odm/2003">
 <defs>
  <style type="text/css">
   <![CDATA[
    .fil1 {fill:black;fill-rule:nonzero}
    .fil0 {fill:#D60037;fill-rule:nonzero}
   ]]>
  </style>
 </defs>
 <g id="图层_x0020_1">
  <metadata id="CorelCorpID_0Corel-Layer"/>
  <path class="fil0" d="M7173.87 7805.86c65.71,49.76 152.92,-3.45 161.5,-85.48 34.14,-326.93 59.89,-778.58 -188.29,-867.15 -134.13,-47.88 -383.2,75.16 -647.9,276.41 -56.62,43.08 -58.44,137.1 -0.49,178.37 114.42,81.53 286.45,206.09 359.03,259.42 67.74,49.78 207.26,155.97 316.15,238.43z"/>
  <path class="fil0" d="M7010.48 8220.07c50.61,-15.73 89.1,44.99 53.52,84.38 -476,526.88 -1651.9,1775.4 -2028.19,1645.49 -295.42,-101.97 -217.57,-697.86 -167.67,-999.8 6.59,-39.95 38.12,-86.94 76.85,-98.98 300.73,-93.45 1586.52,-482.25 2065.49,-631.09z"/>
  <path class="fil0" d="M6289.45 9505.32c-45.04,49.87 -39.24,134.17 19.91,165.98 487.05,261.95 883.78,383.1 1180.58,206.51 339.14,-201.84 91.52,-1044.36 -91.35,-1494.25 -37.92,-93.31 -128.44,-95.32 -184.99,-20.01 -249.69,332.51 -548.72,726.2 -924.15,1141.77z"/>
  <path class="fil0" d="M6973.93 8073.83c88.35,-19.74 108.24,-132.68 33.57,-183.98 -760.56,-522.38 -1894.09,-1273.18 -2308.85,-988.78 -347.98,238.59 -54.33,1130.87 115.77,1565.41 18.63,47.61 69.13,74.43 118.96,63.29l2040.55 -455.94z"/>
  <path class="fil1" d="M9171.91 9327.15c-256.06,0 -459.29,-82.56 -609.64,-247.68 -150.37,-165.1 -225.55,-388.47 -225.55,-670.04 0,-287.18 78.19,-515.1 234.52,-683.81 156.33,-168.7 367.72,-253.07 634.14,-253.07 213.77,0 389.85,53.47 528.29,160.35 138.37,106.9 219.12,251.26 242.27,433.12l-367.33 0c-9.58,-76.57 -52.72,-143.74 -129.37,-201.61 -76.67,-57.83 -161.31,-86.75 -253.93,-86.75 -159.73,0 -284.72,55.26 -374.96,165.72 -90.24,110.51 -135.35,263.83 -135.35,460.05 0,199.45 43.3,351.2 129.86,455.31 86.57,104.07 213.26,156.11 380.02,156.11l-1.19 0c142.02,0 252.93,-54.22 332.73,-162.7 43.87,-61.43 76.2,-133.59 96.96,-216.58l0 -3.6 -414.07 0 0 -302.7 736.66 0 0 948.82 -245.28 0 -35.89 -227.36 -21.54 28.74c-123.64,165.12 -291.16,247.68 -502.55,247.68l1.2 0z"/>
  <path class="fil1" d="M11057 8494.38c-7.98,-78.18 -28.71,-139.2 -62.23,-183.06 -43.88,-58.22 -112.08,-87.35 -204.58,-87.35 -88.55,0 -155.98,33.93 -202.24,101.71 -28.72,43.08 -49.45,99.29 -62.22,168.7l531.27 0zm-262.03 818.41c-197.84,0 -350.41,-61.02 -457.67,-183.06 -107.3,-122.03 -160.94,-295.93 -160.94,-521.68 0,-208.2 54.65,-371.1 163.93,-488.76 109.26,-117.66 260.84,-176.5 454.68,-176.5 198.6,0 351.57,60.03 458.85,180.08 107.28,120.06 160.91,290.93 160.91,512.7 1.61,25.55 -0.39,51.43 -5.96,77.76l-886.62 0c7.97,102.91 30.71,179.89 68.2,230.92 47.87,63.84 127.63,95.72 239.3,95.72 51.85,0 99.92,-14.74 144.17,-44.27 44.28,-29.49 70.79,-64.99 79.59,-106.47l349.38 0c-29.52,132.41 -97.93,236.11 -205.21,311.09 -107.3,74.98 -241.5,112.47 -402.61,112.47z"/>
  <path class="fil1" d="M11604.85 7977.48l162.71 0 163.92 0 0 192.65c13.57,-23.13 28.32,-45.07 44.27,-65.82 84.55,-107.67 207.38,-161.52 368.53,-161.52 137.18,0 244.69,40.69 322.46,122.03 77.78,81.37 116.66,194.25 116.66,338.6l0 875.87 -171.1 0 -172.29 0 0 -813.65c0,-80.53 -17.37,-140.15 -52.06,-178.83 -34.68,-38.72 -87.92,-58.07 -159.74,-58.07 -90.14,0 -159.32,27.14 -207.57,81.35 -48.27,54.29 -72.4,132.46 -72.4,234.53l0 734.67 -171.09 0 -172.3 0 0 -1301.81z"/>
  <path class="fil1" d="M13843.63 8494.38c-7.99,-78.18 -28.72,-139.2 -62.22,-183.06 -43.9,-58.22 -112.07,-87.35 -204.6,-87.35 -88.55,0 -155.96,33.93 -202.22,101.71 -28.72,43.08 -49.45,99.29 -62.21,168.7l531.25 0zm-262.04 818.41c-197.83,0 -350.39,-61.02 -457.67,-183.06 -107.29,-122.03 -160.91,-295.93 -160.91,-521.68 0,-208.2 54.62,-371.1 163.9,-488.76 109.28,-117.66 260.84,-176.5 454.68,-176.5 198.6,0 351.58,60.03 458.87,180.08 107.26,120.06 160.92,290.93 160.92,512.7 1.59,25.55 -0.42,51.43 -5.98,77.76l-886.61 0c7.97,102.91 30.69,179.89 68.18,230.92 47.87,63.84 127.64,95.72 239.3,95.72 51.85,0 99.92,-14.74 144.2,-44.27 44.25,-29.49 70.77,-64.99 79.56,-106.47l349.39 0c-29.53,132.41 -97.92,236.11 -205.22,311.09 -107.29,74.98 -241.5,112.47 -402.61,112.47z"/>
  <path class="fil1" d="M14390.55 7977.48l162.7 0 163.93 0 0 233.32c11.98,-25.53 25.53,-50.23 40.7,-74.19 80.57,-129.21 184.63,-193.82 312.29,-193.82l77.77 1.2 0 350.57c-30.33,-3.19 -64.61,-4.78 -102.91,-4.78 -104.5,0 -182.45,25.92 -233.9,77.75 -51.46,51.87 -77.19,130.45 -77.19,235.74l0 676.02 -171.08 0 -172.31 0 0 -1301.81z"/>
  <path class="fil1" d="M16032.68 8798.3l0 -149.57c-39.89,22.33 -92.54,40.27 -157.94,53.84l-126.83 23.94c-59.84,11.17 -105.3,31.71 -136.41,61.6 -31.1,29.92 -46.65,67.61 -46.65,113.08 0,51.87 13.94,92.57 41.87,122.05 27.91,29.51 67.01,44.28 117.27,44.28 110.05,0 197.79,-38.69 263.21,-116.07 12.75,-15.13 23.53,-37.49 32.32,-67.02 8.75,-29.5 13.16,-58.2 13.16,-86.13zm-412.8 514.49c-120.44,0 -217.37,-34.49 -290.75,-103.48 -73.4,-69.02 -110.08,-159.77 -110.08,-272.22 0,-118.82 33.09,-213.97 99.32,-285.37 66.2,-71.38 162.72,-116.26 289.53,-134.61l226.14 -31.1c59.03,-7.99 108.08,-21.56 147.18,-40.68 16.74,-7.98 29.73,-22.32 38.89,-43.09 9.17,-20.72 12.57,-41.88 10.17,-63.4 -4.78,-36.68 -23.52,-65.42 -56.24,-86.17 -39.1,-24.7 -95.31,-37.08 -168.72,-37.08 -65.4,0 -116.44,15.97 -153.14,47.88 -36.69,31.9 -56.22,76.97 -58.62,135.19l-329.05 0c7.2,-152.32 59.03,-266.43 155.55,-342.21 96.51,-75.75 238.12,-113.65 424.76,-113.65 161.94,0 289.75,34.13 383.47,102.4 93.73,68.27 140.6,161.48 140.6,279.64l0 728.12c0,58.3 4.78,99.21 14.36,122.76 9.58,23.58 28.72,42.13 57.43,55.7l0 1.18 0 46.68 -185.46 0 -185.44 0 0 -1.18c-15.19,-52.66 -25.14,-104.11 -29.92,-154.35l-1.2 -2.42c-107.69,127.65 -247.28,191.46 -418.78,191.46z"/>
  <polygon class="fil1" points="16634.66,7520.42 16805.76,7520.42 16978.05,7520.42 16978.05,9279.28 16806.96,9279.28 16634.66,9279.28 "/>
  <polygon class="fil1" points="18393.51,7832.71 17862.26,7832.71 17862.26,7677.19 17862.26,7520.42 19292.09,7520.42 19292.09,7675.94 19292.09,7832.71 18760.84,7832.71 18760.84,9279.28 18577.78,9279.28 18393.51,9279.28 "/>
  <path class="fil1" d="M20018.43 8494.38c-7.98,-78.18 -28.72,-139.2 -62.21,-183.06 -43.9,-58.22 -112.08,-87.35 -204.6,-87.35 -88.54,0 -155.96,33.93 -202.22,101.71 -28.72,43.08 -49.48,99.29 -62.22,168.7l531.25 0zm-262.03 818.41c-197.84,0 -350.4,-61.02 -457.67,-183.06 -107.3,-122.03 -160.92,-295.93 -160.92,-521.68 0,-208.2 54.62,-371.1 163.91,-488.76 109.28,-117.66 260.83,-176.5 454.68,-176.5 198.6,0 351.56,60.03 458.86,180.08 107.26,120.06 160.92,290.93 160.92,512.7 1.59,25.55 -0.41,51.43 -5.98,77.76l-886.6 0c7.94,102.91 30.68,179.89 68.17,230.92 47.88,63.84 127.64,95.72 239.3,95.72 51.87,0 99.92,-14.74 144.18,-44.27 44.27,-29.49 70.81,-64.99 79.58,-106.47l349.39 0c-29.52,132.41 -97.91,236.11 -205.21,311.09 -107.3,74.98 -241.5,112.47 -402.61,112.47z"/>
  <path class="fil1" d="M21307.05 8367.53c0,-50.23 -20.77,-90.52 -62.27,-120.85 -41.51,-30.29 -96.58,-45.43 -165.21,-45.43 -66.26,0 -117.96,11.34 -155.05,34.08 -37.14,22.74 -55.69,54.45 -55.69,95.13 0,28.69 21.13,53.46 63.42,74.19 41.48,19.95 115.3,41.87 221.4,65.79 210.64,47.07 351.47,98.52 422.5,154.35 71.18,55.86 106.78,143.61 106.78,263.25 0,127.62 -51.67,230.31 -154.97,308.09 -103.31,77.77 -239.54,116.67 -408.67,116.67 -200.28,0 -354.43,-38.31 -462.55,-114.87 -108.09,-76.6 -165.72,-188.25 -172.91,-335.02l349.38 0c2.4,59.83 28.94,106.67 79.58,140.58 50.68,33.92 119.5,50.84 206.46,50.84 68.6,0 122.28,-11.74 160.99,-35.29 38.69,-23.5 58.04,-56.41 58.04,-98.72 0,-29.48 -18.74,-54.62 -56.21,-75.37 -37.49,-19.9 -103.33,-40.27 -197.46,-61.01 -220.2,-49.45 -367.39,-101.72 -441.58,-156.75 -74.08,-54.25 -111.11,-138.38 -111.11,-252.46 0,-129.23 48.03,-233.51 144.14,-312.88 96.08,-79.35 222.71,-119.06 379.81,-119.06 177.05,0 319.8,38.89 428.28,116.66 108.48,77.77 162.71,180.5 162.71,308.08l-339.81 0z"/>
  <path class="fil1" d="M22489.62 9286.48c-57.44,4.78 -128.03,7.16 -211.8,7.16 -121.27,0 -208.38,-21.71 -261.43,-65.2 -53.05,-43.47 -79.57,-114.67 -79.57,-213.59l0 -796.85 -180.66 0 0 -240.52 180.66 0 0 -350.57 343.39 0 0 350.57 209.41 0 0 240.52 -209.41 0 0 739.43c0,30.31 9,50.25 26.93,59.82 17.96,9.58 55.21,14.35 111.88,14.35l70.6 0 0 254.88z"/>
 </g>
</svg>
